<?xml version="1.0" encoding="utf-8"?>
<!-- Generator: Adobe Illustrator 27.5.0, SVG Export Plug-In . SVG Version: 6.00 Build 0)  -->
<svg version="1.1" xmlns="http://www.w3.org/2000/svg" xmlns:xlink="http://www.w3.org/1999/xlink" x="0px" y="0px"
	 viewBox="0 0 750 500" style="enable-background:new 0 0 750 500;" xml:space="preserve">
<g id="BACKGROUND">
	<rect style="fill:#EDF2F9;" width="750" height="500"/>
</g>
<g id="OBJECTS">
	<ellipse style="fill:#DAE1EF;" cx="375" cy="408.976" rx="301" ry="7.547"/>
	<g>
		<path style="fill:#F5B8A5;" d="M573.866,183.586c0,0-9.422,3.298-11.871,3.486s-29.018-9.421-29.018-9.421l-5.088,11.306
			c0,0,25.061,9.987,32.221,10.929c7.16,0.942,24.119-4.522,24.119-4.522L573.866,183.586z"/>
		<path style="fill:#3173BA;" d="M600.811,165.214c0,0-30.495,15.565-32.002,16.13c-1.507,0.565,6.612,17.053,9.25,18.938
			c2.638,1.884,23.129-12.267,28.217-18.297C611.363,175.955,606.005,165.844,600.811,165.214z"/>
		<path style="fill:#033E87;" d="M599.667,184.316l-1.301-0.395l-21.814,6.691l0.627,8.77c0.334,0.412,0.632,0.721,0.881,0.899
			c1.731,1.236,11.144-4.429,18.852-10.174c0.005-0.004,0.012-0.009,0.017-0.013C598.234,187.34,599.667,184.316,599.667,184.316z"
			/>
		<polygon style="fill:#21405F;" points="581.345,207.018 529.345,207.018 510.567,137.355 562.567,137.355 		"/>
		<g>
			<g>
				<polygon style="fill:#3173BA;" points="590.693,283.591 606.125,399.819 617.68,399.819 623.258,263.025 591.873,263.025 				
					"/>
				<polygon style="fill:#033E87;" points="590.997,285.878 621.858,297.348 622.333,285 				"/>
				<path style="fill:#233C51;" d="M606.125,399.819c0,0-14.922,6.01-15.122,7.404c-0.199,1.395,26.894,0,26.894,0l-0.218-7.404
					H606.125z"/>
				<polygon style="fill:#3173BA;" points="620.854,283.591 636.287,399.819 647.841,399.819 653.419,263.025 622.035,263.025 				
					"/>
				<path style="fill:#033E87;" d="M652.166,293.756l0.418-10.248l-0.283-1.259c0,0-6.051-4.25-10.551-4.25
					s-17.408,0.25-17.408,0.25l-2.792,10.586L652.166,293.756z"/>
				<path style="fill:#233C51;" d="M636.287,399.819c0,0-14.922,6.01-15.122,7.404c-0.199,1.395,26.894,0,26.894,0l-0.218-7.404
					H636.287z"/>
				<path style="fill:#DAE1EF;" d="M610.72,120.986c0,0-15.451,5.252-3.893,20.599s14.847-16.064,14.75-16.285
					C621.481,125.079,610.72,120.986,610.72,120.986z"/>
				<path style="fill:#DAE1EF;" d="M605.339,139.434c0,0,0.411,13.563,9.161,18.606c8.75,5.043-8.036-19.562-8.036-19.562
					L605.339,139.434z"/>
				<path style="fill:#3173BA;" d="M646.848,166.461c-6.867-0.992-15.503-1.716-15.503-1.716h-14.059l-16.475,0.469L585.14,285.071
					c12.914,2.139,15.727,3.176,25.558,3.573l5.487,0.164c20.973,0.38,43.816-2.558,43.816-2.558l-8.433-95.637l-1.864-21.143
					C649.566,167.925,648.383,166.683,646.848,166.461z"/>
				<path style="fill:#033E87;" d="M629.125,205c2.45-0.596,19.006-9.561,22.675-11.747l0,0l-0.233-2.64l-0.826-9.366
					c-3.964-0.903-10.543-0.295-11.206,0.169c-0.952,0.667-4.535,2.917-11.202,5.25c-6.667,2.333-31.923,12.203-31.923,12.203
					s12.343,7.816,14.027,8.148C613.396,207.601,626.042,205.75,629.125,205z"/>
				<polygon style="fill:#F5B8A5;" points="617.286,155.439 617.286,164.745 631.399,164.745 631.399,147.015 617.286,147.015 				
					"/>
				<path style="fill:#EA9686;" d="M617.286,153.567c0.951-0.149,1.914-0.234,2.695-0.162c2.462,0.227,8.519,0.259,9.005,0.551
					c0.486,0.292,2.413,1.854,2.413,1.854s-3.462,6.536-14.113,6.892v-7.191V153.567z"/>
				<path style="fill:#F5B8A5;" d="M647.012,135.99c-4.138-2.008-6.798,3.688-6.798,3.688s-4.465-2.876-3.705-12.166
					c0,0-5.997-4.37-15.197-5.379c-10.042-1.313-14.343,6.261-14.767,10.285c-1.207,11.47,3.749,26.849,15.443,27.157
					c2.317,0.061,10.899-1.821,17.379-12.919C647.789,149.383,651.15,137.998,647.012,135.99z"/>
				<path style="fill:#EA9686;" d="M643.295,139.07c0,0,0.987-1.242,2.619-0.129c1.388,0.946-0.07,5.633-4.005,5.751
					c0,0,2.385-1.141,2.909-3.103C645.342,139.627,643.859,139.024,643.295,139.07z"/>
				<ellipse style="fill:#233C51;" cx="611.384" cy="141.786" rx="1.604" ry="1.991"/>
				<path style="fill:#E27466;" d="M618.646,139.994c0,0-1.014,4.24-2.046,5.714s-0.111,2.36,2.396,2.323
					c2.507-0.037-0.811-0.553-0.922-1.88S619.439,142.832,618.646,139.994z"/>
				<g>
					<path style="fill:#233C51;" d="M608.048,138.579c-0.183,0-0.366-0.076-0.498-0.225c-0.242-0.276-0.216-0.695,0.059-0.937
						c0.989-0.869,3.543-2.051,6.152-0.313c0.304,0.203,0.387,0.615,0.185,0.92c-0.204,0.307-0.615,0.385-0.921,0.184
						c-2.425-1.619-4.519,0.186-4.538,0.204C608.36,138.524,608.203,138.579,608.048,138.579z"/>
				</g>
				<ellipse style="fill:#233C51;" cx="626.555" cy="141.786" rx="1.604" ry="1.991"/>
				<g>
					<path style="fill:#233C51;" d="M629.863,138.579c0.183,0,0.366-0.076,0.498-0.225c0.242-0.276,0.216-0.695-0.059-0.937
						c-0.988-0.869-3.543-2.051-6.152-0.313c-0.304,0.203-0.387,0.615-0.185,0.92c0.204,0.307,0.615,0.385,0.921,0.184
						c2.425-1.619,4.519,0.186,4.538,0.204C629.55,138.524,629.708,138.579,629.863,138.579z"/>
				</g>
				<path style="fill:#DAE1EF;" d="M608.326,130.332c7.924,4.001,28.183-2.82,28.183-2.82c-0.936,8.811,3.705,12.166,3.705,12.166
					c3.027-5.419,6.798-3.688,6.798-3.688c4.509-11.048-4.669-15.004-4.669-15.004s-0.961-7.482-12.968-10.348
					C601.344,103.949,600.402,126.331,608.326,130.332z"/>
			</g>
			<path style="fill:#F5B8A5;" d="M617.286,164.745c0,0,0.236,4.755,5.882,4.755c5.645,0,8.231-4.755,8.231-4.755H617.286z"/>
		</g>
		<path style="fill:#F5B8A5;" d="M626,183.75c0,0-12.384,6.145-14.833,6.333s-29.822-8.245-29.822-8.245l-4.794,8.774
			c0,0,27.872,12.279,35.032,13.221c7.16,0.942,23.333-11.417,23.333-11.417L626,183.75z"/>
		<path style="fill:#3173BA;" d="M647.259,166.521c-4.784,0-28.281,15.914-29.788,16.479s6.612,17.053,9.25,18.938
			s18.157-12.015,23.244-18.045C655.053,177.863,650.75,166.521,647.259,166.521z"/>
		<path style="fill:#F5B8A5;" d="M581.345,181.838c0,0-3.587-4.157-4.585-5.227s-2.566-6.343-4.348-7.412
			c-1.782-1.069-0.855,4.728-0.428,5.963c0,0-5.488-4.538-7.84-6.604s-4.704,6.201-3.136,11.617
			c1.568,5.417,15.542,10.437,15.542,10.437S580.371,186.922,581.345,181.838z"/>
		<path style="fill:#F5B8A5;" d="M517.25,177.65c0.75,3.516,3.556,13.496,4.639,14.08c1.083,0.583,5.25-0.25,6-2.417
			c0.75-2.167-3.389-15.147-3.972-15.48C523.333,173.5,516.5,174.134,517.25,177.65z"/>
		<path style="fill:#DAE1EF;" d="M606.464,138.478c0,0,1.227,9.95,4.256,12.434c3.029,2.484,3.67,0.373,3.67,0.373l0.235,3.093
			l1.559,2.496l-2.984-1.201c0,0-1.87-0.862-1.817-1.049c0.054-0.188-0.886-2.063-1.604-2.875S605.491,145.019,606.464,138.478z"/>
		<path style="fill:#E27466;" d="M615.713,153.109c0,0,5.39,3.537,9.541-1.197C625.254,151.912,621.433,153.887,615.713,153.109z"/>
		<path style="fill:#DAE1EF;" d="M637.335,135.409c0,0,0.915,4.645-0.418,8.368c-1.333,3.723-6.542,7.639-7.917,8.369
			s-3.62-3.219-5.224-3.428c-1.604-0.208-6.563-0.259-8.063,0.871c-1.5,1.129-2.603,4.468-2.512,6.086
			c0.091,1.617,1.523,6.013,12.849,4.576c11.326-1.438,14.191-12.519,14.164-20.572
			C640.188,131.625,637.335,135.409,637.335,135.409z M620.063,156.719c-2.348,0.125-5.094-1.125-4.75-2.188
			c0,0,0.688-3.25,2.313-3.406c0.838-0.081,5.313-0.594,5.844-0.469s2.554,3.337,2.581,3.723
			C626.076,154.765,623.251,156.549,620.063,156.719z"/>
		<g>
			<g>
				<g>
					<path style="fill:none;stroke:#EDF2F9;stroke-miterlimit:10;" d="M555.419,177.746c0,0,0.816,0.982,0.593,1.761
						c0,0,0.13,1.186-0.853,2.336s-6.224-0.056-6.847-0.63s0.086-1.24,0.086-1.24s1.817,0.649,3.985-0.13
						S555.419,177.746,555.419,177.746z"/>
					<path style="fill:none;stroke:#EDF2F9;stroke-miterlimit:10;" d="M551.471,173.946c0,0-1.075,3.67-1.965,4.171
						c-0.89,0.5-3.383-1.794-4.866-1.831c-1.483-0.037-1.372,0.797-2.15,0.297c-0.779-0.5-2.589,0.173-3.725,3.209"/>
					<path style="fill:none;stroke:#EDF2F9;stroke-miterlimit:10;" d="M542.759,163.399c0.093,0,5.172,0.553,5.95,3.335
						c0.779,2.782-1.613,2.683-1.733,4.197c-0.12,1.514,0.808,2.062-2.863,2.843c-3.671,0.781-7.964,0.169-9.876-2.918"/>
				</g>
				<g>
					<path style="fill:#EDF2F9;" d="M541.025,158.702c2.156,0,4.182,0.721,6.164,1.361c3.559,1.149,4.877,5.505,4.877,5.505
						s0.777,0.111,1.185,1.166c0.408,1.055-1.168,1.373-1.184,2.634c-0.017,1.26,0.999,1.65,2.018,2.285s0.019,1.181-0.538,2.124
						c-0.556,0.943-0.667,2.171,0.241,2.43c0.908,0.26,1.631,1.538,1.631,1.538c0.971,2.434-0.26,4.096-0.26,4.096
						c-0.292,1.288,0.473,1.381,0.681,2.549c0.186,1.042-0.768,1.28-2.162,1.28c-0.168,0-0.342-0.003-0.521-0.009
						c-1.668-0.055-5.709-0.019-8.156-0.353s-2.632-2.484-3.007-4.597c-0.251-1.418-0.898-2.485-1.781-2.485
						c-0.433,0-0.922,0.257-1.449,0.854c-0.462,0.524-0.799,0.724-1.112,0.724c-0.773,0-1.402-1.219-3.417-1.799
						c-2.833-0.816-5.842-5.042-5.657-8.511c0.185-3.469,2.669-6.058,7.012-9.024C537.514,159.157,539.311,158.702,541.025,158.702
						 M541.025,157.702c-2.121,0-4.083,0.636-5.998,1.943c-3.732,2.549-7.217,5.499-7.447,9.797
						c-0.204,3.821,2.955,8.54,6.379,9.525c0.95,0.273,1.52,0.705,2.023,1.085c0.489,0.37,0.995,0.753,1.671,0.753
						c0.819,0,1.425-0.568,1.862-1.062c0.359-0.407,0.609-0.516,0.699-0.516c0.143,0,0.589,0.494,0.796,1.66l0.076,0.442
						c0.347,2.032,0.779,4.562,3.78,4.971c1.915,0.261,4.685,0.302,6.707,0.332c0.617,0.009,1.153,0.017,1.551,0.03
						c0.19,0.006,0.375,0.01,0.554,0.01c1.016,0,2.141-0.102,2.771-0.855c0.249-0.297,0.516-0.816,0.375-1.601
						c-0.116-0.648-0.361-1.065-0.541-1.369c-0.166-0.281-0.22-0.374-0.181-0.627c0.359-0.61,1.206-2.433,0.244-4.844l-0.025-0.063
						l-0.033-0.059c-0.152-0.269-0.961-1.611-2.169-1.991c-0.019-0.155,0.03-0.541,0.288-0.978c0.112-0.19,0.264-0.379,0.412-0.562
						c0.359-0.445,0.806-0.999,0.683-1.73c-0.079-0.47-0.379-0.87-0.89-1.189c-0.151-0.094-0.303-0.184-0.451-0.271
						c-0.88-0.519-1.103-0.7-1.097-1.152c0.003-0.193,0.134-0.353,0.433-0.672c0.393-0.418,1.123-1.197,0.684-2.335
						c-0.343-0.887-0.892-1.34-1.326-1.569c-0.482-1.258-2.052-4.625-5.36-5.693l-0.476-0.155
						C545.125,158.34,543.166,157.702,541.025,157.702L541.025,157.702z"/>
				</g>
			</g>
			<path style="fill:#EDF2F9;" d="M549.738,169.495c0.862-1.676,2.141-1.255,2.141-1.255c-0.445,0.92-0.056,1.93-0.139,3.361
				s-0.931,2.03-2.113,1.901S548.876,171.171,549.738,169.495z"/>
		</g>
		<g>
			<polygon style="fill:#EDF2F9;" points="533.35,143.994 532.926,142.423 516.606,142.423 517.03,143.994 			"/>
			<polygon style="fill:#EDF2F9;" points="534.116,146.7 533.692,145.128 517.372,145.128 517.795,146.7 			"/>
			<polygon style="fill:#EDF2F9;" points="534.881,149.405 534.458,147.834 518.138,147.834 518.561,149.405 			"/>
		</g>
		<g>
			<polygon style="fill:#EDF2F9;" points="548.763,197.494 548.339,195.923 532.019,195.923 532.443,197.494 			"/>
			<polygon style="fill:#EDF2F9;" points="572.922,200.2 572.498,198.628 532.785,198.628 533.208,200.2 			"/>
			<polygon style="fill:#EDF2F9;" points="573.688,202.905 573.264,201.334 533.55,201.334 533.974,202.905 			"/>
		</g>
	</g>
	<g>
		<g>
			<g>
				<path style="fill:#233C51;" d="M416.056,157.019l0.002,0c0,0,5.518,6.078,17.918,8.148c2.426,0.405,4.04,1.2,5.052,2.216
					c4.196-1.188,7.348-2.049,7.348-2.049s5.769-0.458,12.999-4.235c0.689-2.406,12.458-35.797-6.116-42.265
					c-21.437-7.465-29.571,8.035-29.571,8.035s-12.471,0.881-9.2,19.572C415.187,150.43,415.726,153.966,416.056,157.019z"/>
			</g>
		</g>
		<path style="fill:#3173BA;" d="M458.932,170.67c0,0,12.705,0.474,17.699,18.152c4.994,17.678-9.132,6.803-9.632,6.303
			s-3.749-0.82-4.874-3.785C461,188.375,458.932,170.67,458.932,170.67z"/>
		<g>
			<polygon style="fill:#3173BA;" points="471.98,294.991 458.076,400.014 446.803,400.014 441.361,266.554 471.98,266.554 			"/>
			<polygon style="fill:#3173BA;" points="443.256,294.991 429.352,400.014 418.079,400.014 412.637,266.554 443.256,266.554 			"/>
			<path style="fill:#033E87;" d="M413.314,283.169l0.66,16.196c11.841-0.258,29.017-2.375,29.017-2.375l0,0l-1.117-13.614
				c0,0-8.25-2.875-12.125-3.5C427.802,279.561,420.298,281.331,413.314,283.169z"/>
			<path style="fill:#233C51;" d="M429.352,400.014c0,0,14.559,5.863,14.753,7.224c0.194,1.361-26.239,0-26.239,0l0.213-7.224
				H429.352z"/>
			<path style="fill:#033E87;" d="M471.98,293.978l-29.056,10.925l-1.223-29.994c1.384-3.608,3.14-7.998,3.14-7.998l11.83-0.356
				c0,0,12.965,5.497,15.31,7.578V293.978z"/>
			<path style="fill:#3173BA;" d="M433.471,170.67c0,0-10.819,0.907-17.687,2.073l1.716,61.158l-9.879,55.716
				c0,0,21.25,8.552,37.576,7.256l4.146-28.506l2.073,28.64c0,0,16.844-0.652,26.174-5.057l-8.552-58.111
				c0,0-2.764-16.874-0.376-28.466c1.129-5.481,0.47-11.21-1.841-16.307c-1.539-3.396-3.096-5.698-3.096-5.698l-4.794-12.698h-12.05
				H433.471z"/>
			<path style="fill:#033E87;" d="M423.689,180.034c0,0,7.51,22.666,7.723,28.754c0.213,6.087-10.64,3.235-10.64,3.235
				s-0.174,1.537-0.473-3.868S423.689,180.034,423.689,180.034z"/>
			<polygon style="fill:#F5B8A5;" points="446.376,162.424 446.376,170.67 433.976,170.67 433.976,154.96 446.376,154.96 			"/>
			<path style="fill:#EA9686;" d="M438.354,154.96l7.344,0.68c0,0,0.257,0.107,0.678,0.284v6.5v4.813
				c-10.936-1.425-12.4-7.434-12.4-7.434l3.142-4.843H438.354z"/>
			<path style="fill:#F5B8A5;" d="M420.258,142.39c3.636-1.764,5.973,3.24,5.973,3.24s4.269-4.087,3.256-10.69
				c0,0,5.269-3.84,13.353-4.726c8.823-1.153,12.603,5.501,12.975,9.037c1.06,10.078-3.294,23.591-13.569,23.861
				c-2.036,0.053-9.576-1.6-15.269-11.351C419.575,154.158,416.622,144.154,420.258,142.39z"/>
			<path style="fill:#EA9686;" d="M423.524,145.096c0,0-0.867-1.091-2.301-0.113c-1.22,0.832,0.061,4.949,3.519,5.053
				c0,0-2.096-1.002-2.556-2.726C421.725,145.586,423.029,145.056,423.524,145.096z"/>
			<polygon style="fill:#F5B8A5;" points="450.963,170.67 449.311,200.537 428.586,171.128 433.471,170.67 			"/>
			<polygon style="fill:#033E87;" points="449.311,200.537 433.976,178.776 450.515,178.776 450.515,178.776 			"/>
			<polygon style="fill:#468DCE;" points="450.963,170.67 458.446,184.016 453.684,185.085 457.679,190.43 449.311,200.537 			"/>
			<polygon style="fill:#468DCE;" points="449.311,200.537 433.471,192.179 435.998,187.644 428.586,184.923 428.586,171.128 			"/>
			<path style="fill:#233C51;" d="M458.076,400.014c0,0,14.559,5.863,14.753,7.224c0.194,1.361-26.239,0-26.239,0l0.213-7.224
				H458.076z"/>
			<ellipse style="fill:#233C51;" cx="451.562" cy="145.339" rx="1.409" ry="1.749"/>
			<path style="fill:#E27466;" d="M445.181,145.339c0,0,0.891,3.725,1.798,5.021c0.907,1.296,0.097,2.073-2.106,2.041
				c-2.203-0.032,0.713-0.486,0.81-1.652C445.78,149.582,444.485,147.833,445.181,145.339z"/>
			<g>
				<path style="fill:#233C51;" d="M454.494,142.521c0.161,0,0.322-0.067,0.437-0.197c0.213-0.242,0.19-0.61-0.052-0.823
					c-0.869-0.764-3.113-1.802-5.406-0.275c-0.267,0.178-0.34,0.541-0.162,0.809c0.179,0.27,0.541,0.339,0.809,0.162
					c2.13-1.423,3.971,0.163,3.987,0.179C454.219,142.473,454.357,142.521,454.494,142.521z"/>
			</g>
			<g>
				<path style="fill:#233C51;" d="M452.17,144.123c0.371,0,1.043-0.027,1.713-0.194c0.126-0.031,0.202-0.158,0.17-0.282
					c-0.03-0.125-0.162-0.197-0.282-0.17c-0.906,0.226-1.852,0.177-1.862,0.175c-0.131-0.012-0.24,0.091-0.246,0.22
					c-0.008,0.128,0.091,0.238,0.219,0.246C451.896,144.118,452,144.123,452.17,144.123z"/>
			</g>
			<g>
				<path style="fill:#233C51;" d="M453.642,144.87c0.064,0,0.129-0.001,0.196-0.004c0.128-0.005,0.228-0.115,0.222-0.243
					c-0.005-0.125-0.108-0.223-0.232-0.223c-0.003,0-0.006,0-0.011,0c-1.127,0.044-1.921-0.386-1.928-0.39
					c-0.117-0.063-0.255-0.021-0.317,0.09c-0.062,0.112-0.023,0.254,0.09,0.317C451.695,144.436,452.489,144.87,453.642,144.87z"/>
			</g>
			<path style="fill:#233C51;" d="M439.642,145.339c0,0.966-0.631,1.749-1.409,1.749s-1.409-0.783-1.409-1.749
				c0-0.966,0.631-1.749,1.409-1.749S439.642,144.373,439.642,145.339z"/>
			<g>
				<path style="fill:#233C51;" d="M435.326,142.521c-0.161,0-0.322-0.067-0.437-0.197c-0.213-0.242-0.19-0.61,0.052-0.823
					c0.869-0.764,3.113-1.802,5.406-0.275c0.267,0.178,0.34,0.541,0.162,0.809c-0.179,0.27-0.541,0.339-0.809,0.162
					c-2.13-1.423-3.971,0.163-3.987,0.179C435.6,142.473,435.462,142.521,435.326,142.521z"/>
			</g>
			<g>
				<path style="fill:#233C51;" d="M437.624,144.123c-0.37,0-1.043-0.027-1.713-0.194c-0.126-0.031-0.202-0.158-0.17-0.282
					c0.03-0.125,0.162-0.197,0.282-0.17c0.906,0.226,1.852,0.177,1.862,0.175c0.131-0.012,0.24,0.091,0.246,0.22
					c0.008,0.128-0.091,0.238-0.219,0.246C437.899,144.118,437.795,144.123,437.624,144.123z"/>
			</g>
			<g>
				<path style="fill:#233C51;" d="M436.153,144.87c-0.064,0-0.129-0.001-0.196-0.004c-0.128-0.005-0.228-0.115-0.222-0.243
					c0.005-0.125,0.108-0.223,0.232-0.223c0.003,0,0.006,0,0.011,0c1.127,0.044,1.921-0.386,1.928-0.39
					c0.117-0.063,0.255-0.021,0.317,0.09c0.062,0.112,0.023,0.254-0.09,0.317C438.1,144.436,437.306,144.87,436.153,144.87z"/>
			</g>
			<path style="fill:#E27466;" d="M446.797,155.903c0,0-4.736,3.108-8.383-1.052C438.414,154.852,441.771,156.586,446.797,155.903z"
				/>
			<polygon style="fill:#C3CFE2;" points="422.004,198.485 416.872,211.523 416.585,201.297 			"/>
		</g>
		<g>
			<g>
				<polygon style="fill:#DAE1EF;" points="451.725,200.715 439.247,189.259 440.372,188.134 453.259,199.078 				"/>
				<polygon style="fill:#233C51;" points="439.247,189.259 435.053,185.782 436.127,184.657 440.372,188.134 				"/>
			</g>
			<path style="fill:#F5B8A5;" d="M407.54,207.26c0,0-0.162,15.906,2.335,19.24c2.212,2.952,32.31-5.667,43.049-12.418
				s7.545-15.413,7.545-15.413s-6.444-1.994-8.131-1.688s-5.523,9.819-5.523,9.819l-23.78,3.068l-0.767-3.989L407.54,207.26z"/>
			<path style="fill:#EA9686;" d="M407.885,217.253l15.15-7.384c0,0-11.91-1.744-13.535-1.619c-0.637,0.049-1.331,0.897-1.94,1.908
				C407.594,212.056,407.679,214.655,407.885,217.253z"/>
			<path style="fill:#3173BA;" d="M418.274,172.782c0,0-6.653-1.532-10.653,6.968s-2.836,32.273-2.836,32.273l20.207-2.448
				C424.992,209.574,428.083,175.618,418.274,172.782z"/>
		</g>
		<g>
			<polygon style="fill:#335B7C;" points="448.468,231.056 489.85,231.056 504.794,175.618 463.412,175.618 			"/>
			<polygon style="fill:#21405F;" points="449.801,232.723 491.184,232.723 506.127,177.285 464.745,177.285 			"/>
			<polygon style="fill:#426F8E;" points="494.234,183.031 496.528,174.522 476.469,174.522 474.175,183.031 			"/>
			<polygon style="fill:#335B7C;" points="492.161,176.358 493.565,171.152 481.291,171.152 479.888,176.358 			"/>
			<polygon style="fill:#426F8E;" points="493.349,176.358 494.752,171.152 482.479,171.152 481.076,176.358 			"/>
			<polygon style="fill:#335B7C;" points="495.422,183.031 497.715,174.522 477.656,174.522 475.363,183.031 			"/>
			<path style="fill:#F5B8A5;" d="M504.737,199.821c-0.75,3.516-3.556,13.496-4.639,14.08c-1.083,0.583-5.25-0.25-6-2.417
				c-0.75-2.167,3.389-15.147,3.972-15.48C498.653,195.671,505.487,196.305,504.737,199.821z"/>
		</g>
		<path style="fill:#233C51;" d="M429.152,140.44c0,0,9.765-6.356,27.932-1.773c0,0-1.798-8-3.024-9.25
			c-1.226-1.25-6.33-3.333-8.361-3.333c-2.032,0-9.963,1.917-9.963,1.917s-6.063,1.917-7.149,2.667
			C427.5,131.417,425.97,137.463,429.152,140.44z"/>
	</g>
	<g>
		<path style="fill:#193344;" d="M139.979,119.958c0,0,0.097-7.584-12.076-7.751c-12.173-0.167-20.481,14.001-16.148,25.585
			c4.333,11.583-3.833,18.25-3.833,18.25s10,2.114,15.083-9.61c5.083-11.724,2.978-20.279,9.822-17.043
			C139.672,132.625,139.979,119.958,139.979,119.958z"/>
		<path style="fill:#233C51;" d="M134.029,120.373c0,0-10.5,3.4-11.927,15.461c-1.936,16.363,8.733,24.349,19.69,24.633
			s18.071-0.346,18.071-0.346s12.136-9.537,7.553-29.704l-20.869,1.208L134.029,120.373z"/>
		<path style="fill:#D3766A;" d="M231.544,215.125c0,0,5.49-0.119,6.952-0.094c1.462,0.025,6.429-2.341,8.416-1.733
			c1.987,0.608-2.939,3.801-4.143,4.31c0,0,7.045,1.038,10.155,1.402c3.11,0.363-1.456,7.645-6.53,10.107
			c-5.073,2.462-19.716-5.736-19.716-5.736S228.42,219.252,231.544,215.125z"/>
		<g>
			<path style="fill:#3173BA;" d="M198.634,202.292c9.3,3.535,33.831,9.629,33.831,9.629l-3.61,14.773l-36.797-9.266
				c-13.059-6.129-34.242-33.262-34.242-33.262l13.998-14.47C175.479,169.697,198.634,202.292,198.634,202.292z"/>
			<path style="fill:#033E87;" d="M168.171,196.436c7.205,8.036,16.755,17.646,23.887,20.993l-17.364-22.677
				C174.695,194.751,170.879,193.621,168.171,196.436z"/>
			<g>
				<polygon style="fill:#3173BA;" points="181.746,285.887 166.599,399.967 155.258,399.967 149.783,265.7 180.588,265.7 				"/>
				<polygon style="fill:#3173BA;" points="148.474,296.338 110.57,397.766 99.522,395.202 124.548,263.174 154.555,270.139 				"/>
				<path style="fill:#033E87;" d="M141.522,280.865l-18.123,0.191c0,0-1.048,0.611-2.52,1.479l-2.983,15.735l31.888-7.573
					L141.522,280.865z"/>
				<path style="fill:#033E87;" d="M150.492,283.068l0.704,17.263l30.239-12.097l0.312-2.347l-0.442-7.706l-14.219-1.131
					C167.085,277.05,155.537,281.062,150.492,283.068z"/>
				<path style="fill:#3173BA;" d="M141.846,169.237c0,0-10.885,0.912-17.794,2.086l0.681,58.819l-8.893,58.762
					c0,0,27.286,5.736,71.357-1.564l-11.932-59.242c0,0-4.89-19.723-1.604-25.749c6.238-11.44,0.666-18.177-0.994-23.349
					c-1.518-4.727-0.852-9.303-0.852-9.303l-16.477-0.46H141.846z"/>
				<polygon style="fill:#D3766A;" points="155.645,160.173 155.645,169.385 141.793,169.385 141.793,151.834 155.645,151.834 				
					"/>
				<path style="fill:#C45951;" d="M155.645,158.265c-0.934-0.146-1.879-0.23-2.645-0.159c-2.416,0.223-8.362,0.254-8.839,0.54
					c-0.477,0.286-2.368,1.82-2.368,1.82s3.398,6.415,13.852,6.765v-7.058V158.265z"/>
				<path style="fill:#D3766A;" d="M126.468,141.013c4.062-1.971,6.672,3.62,6.672,3.62s4.383-2.823,3.637-11.941
					c0,0,5.887-4.289,14.916-5.279c9.857-1.288,14.078,6.145,14.494,10.095c1.185,11.258-3.68,26.353-15.157,26.655
					c-2.274,0.06-10.698-1.787-17.057-12.68C125.705,154.158,122.406,142.984,126.468,141.013z"/>
				<path style="fill:#C45951;" d="M130.116,144.036c0,0-0.968-1.219-2.57-0.126c-1.362,0.929,0.068,5.529,3.931,5.644
					c0,0-2.341-1.12-2.856-3.045C128.107,144.583,129.563,143.991,130.116,144.036z"/>
				<path style="fill:#271721;" d="M166.599,399.967c0,0,14.647,5.899,14.842,7.267c0.196,1.369-26.397,0-26.397,0l0.214-7.267
					H166.599z"/>
				<path style="fill:#271721;" d="M110.57,397.766c0,0,13.972,8.002,13.972,9.566c0,1.564-26.788-4.783-26.788-4.783l1.769-7.347
					L110.57,397.766z"/>
				<path style="fill:#D3766A;" d="M101.397,248.009c0,0,0.722,5.443,0.858,6.9c0.136,1.456,3.034,6.133,2.649,8.175
					s-4.101-2.503-4.74-3.643c0,0-0.257,7.116-0.275,10.247c-0.019,3.131-7.759-0.606-10.764-5.377
					c-3.005-4.771,3.531-20.228,3.531-20.228S96.951,245.358,101.397,248.009z"/>
				<path style="fill:#3173BA;" d="M110.53,213.887c-2.49,9.632-5.847,34.686-5.847,34.686l-15.081-1.962l5.159-37.593
					c4.654-13.654,29.292-37.695,29.292-37.695l15.922,12.321C140.378,187.285,110.53,213.887,110.53,213.887z"/>
				<path style="fill:#033E87;" d="M124.317,194.21l-13.788,19.676c0,0,6.802-6.063,13.867-12.796L124.317,194.21z"/>
				<ellipse style="fill:#233C51;" cx="161.438" cy="144.307" rx="1.574" ry="1.954"/>
				<path style="fill:#C45951;" d="M154.31,144.307c0,0,0.995,4.161,2.008,5.609s0.109,2.316-2.352,2.28
					c-2.461-0.036,0.796-0.543,0.905-1.846C154.979,149.047,153.532,147.093,154.31,144.307z"/>
				<g>
					<path style="fill:#233C51;" d="M164.712,141.159c0.18,0,0.36-0.075,0.489-0.221c0.237-0.271,0.212-0.682-0.058-0.919
						c-0.97-0.853-3.477-2.013-6.039-0.307c-0.299,0.199-0.38,0.604-0.181,0.903c0.2,0.301,0.604,0.378,0.904,0.181
						c2.38-1.589,4.436,0.182,4.454,0.2C164.405,141.105,164.56,141.159,164.712,141.159z"/>
				</g>
				<ellipse style="fill:#233C51;" cx="146.548" cy="144.307" rx="1.574" ry="1.954"/>
				<g>
					<g>
						<path style="fill:#233C51;" d="M143.3,141.159c-0.18,0-0.36-0.075-0.489-0.221c-0.237-0.271-0.212-0.682,0.058-0.919
							c0.97-0.853,3.477-2.013,6.039-0.307c0.299,0.199,0.38,0.604,0.181,0.903c-0.2,0.301-0.604,0.378-0.904,0.181
							c-2.38-1.589-4.436,0.182-4.454,0.2C143.607,141.105,143.453,141.159,143.3,141.159z"/>
					</g>
				</g>
				<path style="fill:#D3766A;" d="M141.793,169.385c0,0,0.268,6.458,6.926,6.893c6.658,0.434,6.926-6.893,6.926-6.893H141.793z"/>
			</g>
			<path style="fill:#FFFFFF;" d="M148.364,154.928c0,0,4.968-0.437,8.074,0.582c3.105,1.019-2.173,3.93-4.677,3.881
				C149.257,159.343,145.092,155.012,148.364,154.928z"/>
		</g>
		<path style="fill:#233C51;" d="M129.26,140.76c0,0-7.443-21.51,12.533-25.01s32.291,8.833,24.395,21.757h-31.313L129.26,140.76z"
			/>
	</g>
	<g>
		<g>
			<g>
				<path style="fill:#F5B8A5;" d="M219.309,183.061c0,0-3.587-4.157-4.585-5.227s-2.566-6.343-4.348-7.412
					s-0.855,4.728-0.428,5.963c0,0-5.488-4.538-7.84-6.604s-4.704,6.201-3.136,11.617c1.568,5.417,17.461,10.805,17.461,10.805
					S218.335,188.144,219.309,183.061z"/>
				<path style="fill:#DAE1EF;" d="M280.143,184.139c5.262-5.878-0.932-18.295-6.125-18.925c0,0-17.536,19.275-23.667,23.782
					c-13.167-2.993-30.45-8.172-30.45-8.172l-5.884,13.006c0,0,28.125,12.305,37,12.949
					C256.382,207.168,267.036,198.78,280.143,184.139z"/>
				<path style="fill:#C3CFE2;" d="M258.363,204.123c4.738-2.933,10.755-8.213,17.6-15.447c-1.995-1.525-4.94-3.279-4.94-3.279
					L258.363,204.123z"/>
				<path style="fill:#F5B8A5;" d="M378.209,184.525c0,0,3.587-4.157,4.585-5.227c0.998-1.069,2.566-6.343,4.348-7.412
					s0.855,4.728,0.428,5.963c0,0,5.488-4.538,7.84-6.604s4.704,6.201,3.136,11.617c-1.568,5.417-17.461,10.805-17.461,10.805
					S379.183,189.609,378.209,184.525z"/>
				<path style="fill:#DAE1EF;" d="M317.375,185.604c-5.262-5.878,0.932-18.295,6.125-18.925c0,0,17.536,19.275,23.667,23.782
					c13.167-2.993,30.45-8.172,30.45-8.172l5.884,13.006c0,0-28.125,12.305-37,12.949
					C341.136,208.633,330.482,200.244,317.375,185.604z"/>
				<path style="fill:#C3CFE2;" d="M339.163,205.593l-13.66-23.299c0,0-5.753,2.331-6.503,3.71c-0.15,0.275-0.137,0.763-0.028,1.358
					C326.892,196.031,333.837,202.298,339.163,205.593z"/>
				<g>
					<g>
						<polygon style="fill:#233C51;" points="263.9,283.591 279.332,399.819 290.886,399.819 296.464,263.025 265.08,263.025 						
							"/>
						<path style="fill:#233C51;" d="M279.332,399.819c0,0-14.922,6.01-15.122,7.404c-0.199,1.395,26.894,0,26.894,0l-0.218-7.404
							H279.332z"/>
						<polygon style="fill:#233C51;" points="295.779,279.839 309.493,399.819 321.048,399.819 326.626,263.025 295.241,263.025 
													"/>
						<path style="fill:#233C51;" d="M309.493,399.819c0,0-14.922,6.01-15.122,7.404c-0.199,1.395,26.894,0,26.894,0l-0.218-7.404
							H309.493z"/>
						<path style="fill:#233C51;" d="M283.927,120.986c0,0-15.451,5.252-3.893,20.599s14.847-16.064,14.75-16.285
							C294.688,125.079,283.927,120.986,283.927,120.986z"/>
						<path style="fill:#233C51;" d="M320,167.123c-6.867-0.992-15.449-2.377-15.449-2.377h-14.059l-16.475,0.469l-15.672,119.857
							c12.914,2.139,15.727,3.176,25.558,3.573l11.337-17.144c20.973,0.38,37.965,14.75,37.965,14.75l-8.433-95.637l-1.864-21.143
							C322.773,167.925,321.535,167.344,320,167.123z"/>
						<path style="fill:#468DCE;" d="M320,167.123c-6.867-0.992-15.449-2.377-15.449-2.377h-14.059l-16.475,0.469l-12.113,92.641
							h68.798l-5.929-67.242l-1.864-21.143C322.773,167.925,321.535,167.344,320,167.123z"/>
						<polygon style="fill:#3173BA;" points="290.294,165.032 293.138,257.856 286.194,257.856 						"/>
						<polygon style="fill:#F5B8A5;" points="290.492,155.439 290.492,164.745 304.605,164.745 304.605,147.015 290.492,147.015 
													"/>
						<path style="fill:#EA9686;" d="M290.492,153.567c0.951-0.149,1.914-0.234,2.695-0.162c2.462,0.227,8.519,0.259,9.005,0.551
							c0.486,0.292,2.413,1.854,2.413,1.854s-3.462,6.536-14.113,6.892v-7.191V153.567z"/>
						<path style="fill:#F5B8A5;" d="M320.218,135.99c-4.138-2.008-6.798,3.688-6.798,3.688s-4.465-2.876-3.705-12.166
							c0,0-5.997-4.37-15.197-5.379c-10.042-1.313-14.343,6.261-14.767,10.285c-1.207,11.47,3.749,26.849,15.443,27.157
							c2.317,0.061,10.899-1.821,17.379-12.919C320.996,149.383,324.357,137.998,320.218,135.99z"/>
						<path style="fill:#EA9686;" d="M316.502,139.07c0,0,0.987-1.242,2.619-0.129c1.388,0.946-0.07,5.633-4.005,5.751
							c0,0,2.385-1.141,2.909-3.103S317.065,139.024,316.502,139.07z"/>
						<ellipse style="fill:#233C51;" cx="284.59" cy="140.096" rx="1.604" ry="1.991"/>
						<path style="fill:#E27466;" d="M291.853,138.304c0,0-1.014,4.24-2.046,5.714c-1.032,1.475-0.111,2.36,2.396,2.323
							c2.507-0.037-0.811-0.553-0.922-1.88S292.646,141.143,291.853,138.304z"/>
						<g>
							<path style="fill:#233C51;" d="M281.254,136.889c-0.183,0-0.366-0.076-0.498-0.225c-0.242-0.276-0.216-0.695,0.059-0.937
								c0.989-0.869,3.543-2.051,6.152-0.313c0.304,0.203,0.387,0.615,0.185,0.92c-0.204,0.307-0.615,0.385-0.921,0.184
								c-2.425-1.619-4.519,0.186-4.538,0.204C281.567,136.835,281.41,136.889,281.254,136.889z"/>
						</g>
						<ellipse style="fill:#233C51;" cx="299.761" cy="140.096" rx="1.604" ry="1.991"/>
						<g>
							<path style="fill:#233C51;" d="M303.07,136.889c0.183,0,0.366-0.076,0.498-0.225c0.242-0.276,0.216-0.695-0.059-0.937
								c-0.988-0.869-3.543-2.051-6.152-0.313c-0.304,0.203-0.387,0.615-0.185,0.92c0.204,0.307,0.615,0.385,0.921,0.184
								c2.425-1.619,4.519,0.186,4.538,0.204C302.757,136.835,302.914,136.889,303.07,136.889z"/>
						</g>
						<path style="fill:#233C51;" d="M304.606,109.75c11.721,3.87,10.944,11.236,10.944,11.236s9.179,3.956,4.669,15.004
							c0,0-3.771-1.732-6.798,3.688c0,0-4.641-3.355-3.705-12.166c0,0-14.215-1.678-17.132,0.738
							c-2.917,2.417-1.319,4.583-1.319,4.583s-4.476-0.781-4.001-5.583c0,0-2.987,2.627,0,6.147c0,0-12.189-2.043-12.263-12.411
							c-0.064-8.986,5.201-13.403,8.375-13.736c0,0-0.875,2.417,1.667,3.25C287.583,111.333,295.687,106.805,304.606,109.75z"/>
					</g>
					<path style="fill:#F5B8A5;" d="M290.492,164.745c0,0,0.236,4.755,5.882,4.755c5.645,0,8.232-4.755,8.232-4.755H290.492z"/>
				</g>
			</g>
			<path style="fill:#FFFFFF;" d="M289.719,152.344c0,0-0.531-2.156,0.344-2.656s5.036-0.531,7.487-0.75s0.982,5.031,0.42,5.375
				S290.281,155.906,289.719,152.344z"/>
			<polygon style="fill:#DAE1EF;" points="290.492,164.745 287.75,349 247,347.333 274.018,165.214 			"/>
			<polygon style="fill:#DAE1EF;" points="304.605,164.745 305.75,349 346.5,346 323.5,166.679 			"/>
			<polyline style="fill:#FFFFFF;" points="290.492,164.745 290.294,165.032 283.927,174.25 287.263,177.125 282.25,185.375 
				289.78,212.624 			"/>
			<polygon style="fill:#FFFFFF;" points="304.605,164.745 304.903,212.624 312.875,184.474 307.5,178.5 310.25,174.625 			"/>
			<rect x="312.875" y="245" style="fill:#C3CFE2;" width="14.958" height="2.667"/>
			<rect x="267.164" y="245" style="fill:#C3CFE2;" width="14.958" height="2.667"/>
		</g>
		<g>
			<rect x="349.477" y="151.1" style="fill:#21405F;" width="45.343" height="60.932"/>
			<rect x="351.623" y="153.633" style="fill:#FFFFFF;" width="41.052" height="55.867"/>
			<rect x="368.768" y="164.348" style="fill:#21405F;" width="6.761" height="6.761"/>
			<g>
				<g>
					<g>
						<rect x="357.514" y="175.485" style="fill:#21405F;" width="29.27" height="2.019"/>
					</g>
					<g>
						<rect x="357.514" y="179.291" style="fill:#21405F;" width="29.27" height="2.019"/>
					</g>
					<g>
						<rect x="357.514" y="183.096" style="fill:#21405F;" width="29.27" height="2.019"/>
					</g>
					<g>
						<rect x="357.514" y="186.901" style="fill:#21405F;" width="29.27" height="2.019"/>
					</g>
					<g>
						<rect x="357.514" y="190.707" style="fill:#21405F;" width="29.27" height="2.019"/>
					</g>
					<g>
						<rect x="357.514" y="198.317" style="fill:#21405F;" width="9.629" height="2.019"/>
					</g>
					<g>
						<rect x="377.154" y="198.317" style="fill:#21405F;" width="9.629" height="2.019"/>
					</g>
				</g>
			</g>
			<rect x="363.21" y="152.97" style="fill:#6D8EAF;" width="17.876" height="2.405"/>
			<rect x="364.294" y="149.23" style="fill:#89A4C4;" width="15.709" height="4.862"/>
			<rect x="368.408" y="146.756" style="fill:#89A4C4;" width="7.48" height="3.74"/>
		</g>
		<path style="fill:none;stroke:#233C51;stroke-miterlimit:10;" d="M290.493,164.745c0,0-8.272,0.507-9.823,8.281
			c-2.088,10.468-1.409,19.474-4.706,22.974"/>
		<g>
			<circle style="fill:#FFFFFF;" cx="275.964" cy="196" r="3.292"/>
			<circle style="fill:#DAE1EF;" cx="275.964" cy="196" r="1.775"/>
		</g>
		<path style="fill:none;stroke:#233C51;stroke-miterlimit:10;" d="M304.605,164.745c0,0,7.875,0.505,10.51,9.13
			c0.63,2.063,1.024,3.884,1.258,5.461"/>
		<path style="fill:none;stroke:#C3CFE2;stroke-miterlimit:10;" d="M311.038,195.728c0,0-0.041-9.597,0.594-12.904
			c0.875-4.554,8.458-4.929,9.593-0.424c1.184,4.702,1.31,12.412,1.31,12.412"/>
		<path style="fill:none;stroke:#233C51;stroke-miterlimit:10;" d="M311.204,187.468c0.088-1.848,0.223-3.575,0.428-4.644
			c0.875-4.554,8.458-4.929,9.593-0.424c0.378,1.499,0.647,3.305,0.84,5.069"/>
		<line style="fill:none;stroke:#233C51;stroke-miterlimit:10;" x1="310.489" y1="195.728" x2="312.708" y2="195.728"/>
		<line style="fill:none;stroke:#233C51;stroke-miterlimit:10;" x1="320.955" y1="195" x2="323.174" y2="195"/>
	</g>
</g>
</svg>
